<mxfile host="app.diagrams.net" modified="2021-05-18T13:47:47.208Z" agent="5.0 (Windows NT 10.0; Win64; x64) AppleWebKit/537.36 (KHTML, like Gecko) Chrome/90.0.4430.93 Safari/537.36 Edg/90.0.818.56" etag="bKHQLpzBuTRWAaoMD-HB" version="14.6.13" type="github">
  <diagram id="C5RBs43oDa-KdzZeNtuy" name="Page-1">
    <mxGraphModel dx="1038" dy="585" grid="1" gridSize="10" guides="1" tooltips="1" connect="1" arrows="1" fold="1" page="1" pageScale="1" pageWidth="827" pageHeight="1169" math="0" shadow="0">
      <root>
        <mxCell id="WIyWlLk6GJQsqaUBKTNV-0" />
        <mxCell id="WIyWlLk6GJQsqaUBKTNV-1" parent="WIyWlLk6GJQsqaUBKTNV-0" />
        <mxCell id="nAnyXluvEoOM_tkXhjVb-0" value="Dormancy Management System（&amp;lt;&amp;lt;control&amp;gt;&amp;gt;）" style="html=1;overflow=block;blockSpacing=1;whiteSpace=wrap;swimlane;childLayout=stackLayout;horizontal=1;horizontalStack=0;resizeParent=1;resizeParentMax=0;resizeLast=0;collapsible=0;fontStyle=0;marginBottom=0;swimlaneFillColor=#ffffff;startSize=45;whiteSpace=wrap;fontSize=13;fontColor=#333333;fontStyle=1;whiteSpace=wrap;align=center;spacing=0;strokeColor=#333333;strokeOpacity=100;strokeWidth=1.5;" parent="WIyWlLk6GJQsqaUBKTNV-1" vertex="1">
          <mxGeometry x="400" y="265" width="225" height="211.75" as="geometry" />
        </mxCell>
        <mxCell id="nAnyXluvEoOM_tkXhjVb-1" value="- Maximum number of Dormant people(int)&#xa;- Is_captain_dormant(bool)" style="part=1;html=1;whiteSpace=wrap;resizeHeight=0;strokeColor=none;fillColor=none;align=left;verticalAlign=middle;spacingLeft=4;spacingRight=4;overflow=hidden;rotatable=0;points=[[0,0.5],[1,0.5]];portConstraint=eastwest;swimlaneFillColor=#ffffff;strokeOpacity=100;whiteSpace=wrap;fontSize=13;fontColor=#333333;" parent="nAnyXluvEoOM_tkXhjVb-0" vertex="1">
          <mxGeometry y="45" width="225" height="76" as="geometry" />
        </mxCell>
        <mxCell id="nAnyXluvEoOM_tkXhjVb-2" value="" style="line;strokeWidth=1;fillColor=none;align=left;verticalAlign=middle;spacingTop=-1;spacingLeft=3;spacingRight=3;rotatable=0;labelPosition=right;points=[];portConstraint=eastwest;" parent="nAnyXluvEoOM_tkXhjVb-0" vertex="1">
          <mxGeometry y="121" width="225" height="8" as="geometry" />
        </mxCell>
        <mxCell id="nAnyXluvEoOM_tkXhjVb-3" value="+ Get the number of people in dormancy(int)&#xa;+ Wake up the captain&#xa;+ Wake up the crew&#xa;+ Wake up the crew(int)&#xa;+ Allocate_cabin()" style="part=1;html=1;whiteSpace=wrap;resizeHeight=0;strokeColor=none;fillColor=none;align=left;verticalAlign=middle;spacingLeft=4;spacingRight=4;overflow=hidden;rotatable=0;points=[[0,0.5],[1,0.5]];portConstraint=eastwest;swimlaneFillColor=#ffffff;strokeOpacity=100;whiteSpace=wrap;fontSize=13;fontColor=#333333;" parent="nAnyXluvEoOM_tkXhjVb-0" vertex="1">
          <mxGeometry y="129" width="225" height="82.75" as="geometry" />
        </mxCell>
        <mxCell id="nAnyXluvEoOM_tkXhjVb-8" value="Dormant Cabin&lt;br&gt;（&amp;lt;&amp;lt;entity&amp;gt;&amp;gt;）" style="html=1;overflow=block;blockSpacing=1;whiteSpace=wrap;swimlane;childLayout=stackLayout;horizontal=1;horizontalStack=0;resizeParent=1;resizeParentMax=0;resizeLast=0;collapsible=0;fontStyle=0;marginBottom=0;swimlaneFillColor=#ffffff;startSize=50;whiteSpace=wrap;fontSize=13;fontColor=#333333;fontStyle=1;whiteSpace=wrap;align=center;spacing=0;strokeColor=#333333;strokeOpacity=100;strokeWidth=1.5;" parent="WIyWlLk6GJQsqaUBKTNV-1" vertex="1">
          <mxGeometry x="250" y="570" width="225" height="248.75" as="geometry" />
        </mxCell>
        <mxCell id="nAnyXluvEoOM_tkXhjVb-9" value="- Cabin_ID&#xa;- Is_busy()&#xa;- Crew_ID()" style="part=1;html=1;whiteSpace=wrap;resizeHeight=0;strokeColor=none;fillColor=none;align=left;verticalAlign=middle;spacingLeft=4;spacingRight=4;overflow=hidden;rotatable=0;points=[[0,0.5],[1,0.5]];portConstraint=eastwest;swimlaneFillColor=#ffffff;strokeOpacity=100;whiteSpace=wrap;fontSize=13;fontColor=#333333;" parent="nAnyXluvEoOM_tkXhjVb-8" vertex="1">
          <mxGeometry y="50" width="225" height="92" as="geometry" />
        </mxCell>
        <mxCell id="nAnyXluvEoOM_tkXhjVb-10" value="" style="line;strokeWidth=1;fillColor=none;align=left;verticalAlign=middle;spacingTop=-1;spacingLeft=3;spacingRight=3;rotatable=0;labelPosition=right;points=[];portConstraint=eastwest;" parent="nAnyXluvEoOM_tkXhjVb-8" vertex="1">
          <mxGeometry y="142" width="225" height="8" as="geometry" />
        </mxCell>
        <mxCell id="nAnyXluvEoOM_tkXhjVb-11" value="+ get_Cabin_ID()&#xa;+ get_Crew_ID()&#xa;+ get_Isbusy()&#xa;+ modify_Crew_ID()&#xa;+ modify_Cabin_ID()" style="part=1;html=1;whiteSpace=wrap;resizeHeight=0;strokeColor=none;fillColor=none;align=left;verticalAlign=middle;spacingLeft=4;spacingRight=4;overflow=hidden;rotatable=0;points=[[0,0.5],[1,0.5]];portConstraint=eastwest;swimlaneFillColor=#ffffff;strokeOpacity=100;whiteSpace=wrap;fontSize=13;fontColor=#333333;" parent="nAnyXluvEoOM_tkXhjVb-8" vertex="1">
          <mxGeometry y="150" width="225" height="98.75" as="geometry" />
        </mxCell>
        <UserObject label="" lucidchartObjectId="2gjDA~KYbzQr" id="nAnyXluvEoOM_tkXhjVb-12">
          <mxCell style="html=1;jettySize=18;whiteSpace=wrap;fontSize=13;strokeColor=#333333;strokeOpacity=100;strokeWidth=0.8;rounded=1;arcSize=24;edgeStyle=orthogonalEdgeStyle;startArrow=none;;endArrow=none;;exitX=0.161;exitY=1.003;exitPerimeter=0;entryX=0.828;entryY=-0.004;entryPerimeter=0;" parent="WIyWlLk6GJQsqaUBKTNV-1" source="nAnyXluvEoOM_tkXhjVb-0" target="nAnyXluvEoOM_tkXhjVb-8" edge="1">
            <mxGeometry width="100" height="100" relative="1" as="geometry">
              <Array as="points" />
            </mxGeometry>
          </mxCell>
        </UserObject>
        <mxCell id="nAnyXluvEoOM_tkXhjVb-13" value="Dormant Cabin&lt;br&gt;&lt;span style=&quot;font-weight: normal&quot;&gt;（&amp;lt;&amp;lt;entity&amp;gt;&amp;gt;）&lt;/span&gt;" style="html=1;overflow=block;blockSpacing=1;whiteSpace=wrap;swimlane;childLayout=stackLayout;horizontal=1;horizontalStack=0;resizeParent=1;resizeParentMax=0;resizeLast=0;collapsible=0;fontStyle=0;marginBottom=0;swimlaneFillColor=#ffffff;startSize=40;whiteSpace=wrap;fontSize=13;fontColor=#333333;fontStyle=1;whiteSpace=wrap;align=center;spacing=0;strokeColor=#333333;strokeOpacity=100;strokeWidth=1.5;" parent="WIyWlLk6GJQsqaUBKTNV-1" vertex="1">
          <mxGeometry x="400" width="225" height="226.75" as="geometry" />
        </mxCell>
        <mxCell id="nAnyXluvEoOM_tkXhjVb-14" value="- Cabin_ID&#xa;- Is_busy()&#xa;- Crew_ID()" style="part=1;html=1;whiteSpace=wrap;resizeHeight=0;strokeColor=none;fillColor=none;align=left;verticalAlign=middle;spacingLeft=4;spacingRight=4;overflow=hidden;rotatable=0;points=[[0,0.5],[1,0.5]];portConstraint=eastwest;swimlaneFillColor=#ffffff;strokeOpacity=100;whiteSpace=wrap;fontSize=13;fontColor=#333333;" parent="nAnyXluvEoOM_tkXhjVb-13" vertex="1">
          <mxGeometry y="40" width="225" height="70" as="geometry" />
        </mxCell>
        <mxCell id="nAnyXluvEoOM_tkXhjVb-15" value="" style="line;strokeWidth=1;fillColor=none;align=left;verticalAlign=middle;spacingTop=-1;spacingLeft=3;spacingRight=3;rotatable=0;labelPosition=right;points=[];portConstraint=eastwest;" parent="nAnyXluvEoOM_tkXhjVb-13" vertex="1">
          <mxGeometry y="110" width="225" height="8" as="geometry" />
        </mxCell>
        <mxCell id="nAnyXluvEoOM_tkXhjVb-16" value="+ get_Cabin_ID()&#xa;+ get_Crew_ID()&#xa;+ get_Isbusy()&#xa;+ modify_Crew_ID()&#xa;+ modify_Cabin_ID()" style="part=1;html=1;whiteSpace=wrap;resizeHeight=0;strokeColor=none;fillColor=none;align=left;verticalAlign=middle;spacingLeft=4;spacingRight=4;overflow=hidden;rotatable=0;points=[[0,0.5],[1,0.5]];portConstraint=eastwest;swimlaneFillColor=#ffffff;strokeOpacity=100;whiteSpace=wrap;fontSize=13;fontColor=#333333;" parent="nAnyXluvEoOM_tkXhjVb-13" vertex="1">
          <mxGeometry y="118" width="225" height="108.75" as="geometry" />
        </mxCell>
        <UserObject label="" lucidchartObjectId="ukjDJAGaEo2P" id="nAnyXluvEoOM_tkXhjVb-17">
          <mxCell style="html=1;jettySize=18;whiteSpace=wrap;fontSize=13;strokeColor=#333333;strokeOpacity=100;strokeWidth=0.8;rounded=1;arcSize=24;edgeStyle=orthogonalEdgeStyle;startArrow=none;;endArrow=none;;exitX=0.5;exitY=1.004;exitPerimeter=0;entryX=0.5;entryY=-0.003;entryPerimeter=0;" parent="WIyWlLk6GJQsqaUBKTNV-1" source="nAnyXluvEoOM_tkXhjVb-13" target="nAnyXluvEoOM_tkXhjVb-0" edge="1">
            <mxGeometry width="100" height="100" relative="1" as="geometry">
              <Array as="points" />
            </mxGeometry>
          </mxCell>
        </UserObject>
        <mxCell id="nAnyXluvEoOM_tkXhjVb-19" value="Health Detection System Interface&#xa;（&lt;&lt;boundary&gt;&gt;）" style="swimlane;fontStyle=1;align=center;verticalAlign=top;childLayout=stackLayout;horizontal=1;startSize=40;horizontalStack=0;resizeParent=1;resizeParentMax=0;resizeLast=0;collapsible=1;marginBottom=0;" parent="WIyWlLk6GJQsqaUBKTNV-1" vertex="1">
          <mxGeometry y="270" width="220" height="100" as="geometry" />
        </mxCell>
        <mxCell id="nAnyXluvEoOM_tkXhjVb-20" value="- " style="text;strokeColor=none;fillColor=none;align=left;verticalAlign=top;spacingLeft=4;spacingRight=4;overflow=hidden;rotatable=0;points=[[0,0.5],[1,0.5]];portConstraint=eastwest;" parent="nAnyXluvEoOM_tkXhjVb-19" vertex="1">
          <mxGeometry y="40" width="220" height="26" as="geometry" />
        </mxCell>
        <mxCell id="nAnyXluvEoOM_tkXhjVb-21" value="" style="line;strokeWidth=1;fillColor=none;align=left;verticalAlign=middle;spacingTop=-1;spacingLeft=3;spacingRight=3;rotatable=0;labelPosition=right;points=[];portConstraint=eastwest;" parent="nAnyXluvEoOM_tkXhjVb-19" vertex="1">
          <mxGeometry y="66" width="220" height="8" as="geometry" />
        </mxCell>
        <mxCell id="nAnyXluvEoOM_tkXhjVb-22" value="+ method(type): type" style="text;strokeColor=none;fillColor=none;align=left;verticalAlign=top;spacingLeft=4;spacingRight=4;overflow=hidden;rotatable=0;points=[[0,0.5],[1,0.5]];portConstraint=eastwest;" parent="nAnyXluvEoOM_tkXhjVb-19" vertex="1">
          <mxGeometry y="74" width="220" height="26" as="geometry" />
        </mxCell>
      </root>
    </mxGraphModel>
  </diagram>
</mxfile>
